<svg width="571" height="286" viewBox="0 0 571 286" fill="none" xmlns="http://www.w3.org/2000/svg">
<path d="M366.455 196V56.3636H403.364V81H405C407.909 72.8182 412.758 66.3636 419.545 61.6364C426.333 56.9091 434.455 54.5455 443.909 54.5455C453.485 54.5455 461.636 56.9394 468.364 61.7273C475.091 66.4545 479.576 72.8788 481.818 81H483.273C486.121 73 491.273 66.6061 498.727 61.8182C506.242 56.9697 515.121 54.5455 525.364 54.5455C538.394 54.5455 548.97 58.697 557.091 67C565.273 75.2424 569.364 86.9394 569.364 102.091V196H530.727V109.727C530.727 101.97 528.667 96.1515 524.545 92.2727C520.424 88.3939 515.273 86.4545 509.091 86.4545C502.061 86.4545 496.576 88.697 492.636 93.1818C488.697 97.6061 486.727 103.455 486.727 110.727V196H449.182V108.909C449.182 102.061 447.212 96.6061 443.273 92.5454C439.394 88.4848 434.273 86.4545 427.909 86.4545C423.606 86.4545 419.727 87.5455 416.273 89.7273C412.879 91.8485 410.182 94.8485 408.182 98.7273C406.182 102.545 405.182 107.03 405.182 112.182V196H366.455Z" fill="#B4B4B4"/>
<path d="M366.455 196H365.455V197H366.455V196ZM366.455 56.3636V55.3636H365.455V56.3636H366.455ZM403.364 56.3636H404.364V55.3636H403.364V56.3636ZM403.364 81H402.364V82H403.364V81ZM405 81V82H405.706L405.942 81.335L405 81ZM419.545 61.6364L418.974 60.8157L418.974 60.8157L419.545 61.6364ZM468.364 61.7273L467.784 62.542L467.789 62.5455L468.364 61.7273ZM481.818 81L480.854 81.2662L481.057 82H481.818V81ZM483.273 81V82H483.978L484.215 81.3354L483.273 81ZM498.727 61.8182L499.268 62.6596L499.269 62.6585L498.727 61.8182ZM557.091 67L556.376 67.6993L556.381 67.7045L557.091 67ZM569.364 196V197H570.364V196H569.364ZM530.727 196H529.727V197H530.727V196ZM524.545 92.2727L523.86 93.0009L523.86 93.0009L524.545 92.2727ZM492.636 93.1818L493.383 93.8468L493.388 93.8418L492.636 93.1818ZM486.727 196V197H487.727V196H486.727ZM449.182 196H448.182V197H449.182V196ZM443.273 92.5454L442.55 93.2362L442.555 93.2418L443.273 92.5454ZM416.273 89.7273L416.803 90.5753L416.807 90.5728L416.273 89.7273ZM408.182 98.7273L409.068 99.1913L409.071 99.1856L408.182 98.7273ZM405.182 196V197H406.182V196H405.182ZM367.455 196V56.3636H365.455V196H367.455ZM366.455 57.3636H403.364V55.3636H366.455V57.3636ZM402.364 56.3636V81H404.364V56.3636H402.364ZM403.364 82H405V80H403.364V82ZM405.942 81.335C408.785 73.3394 413.509 67.0588 420.117 62.457L418.974 60.8157C412.006 65.6684 407.033 72.297 404.058 80.665L405.942 81.335ZM420.117 62.457C426.714 57.8626 434.629 55.5455 443.909 55.5455V53.5455C434.28 53.5455 425.953 55.9555 418.974 60.8157L420.117 62.457ZM443.909 55.5455C453.311 55.5455 461.252 57.8931 467.784 62.542L468.943 60.9125C462.021 55.9857 453.658 53.5455 443.909 53.5455V55.5455ZM467.789 62.5455C474.321 67.1359 478.672 73.3625 480.854 81.2662L482.782 80.7338C480.48 72.3951 475.861 65.7732 468.939 60.9091L467.789 62.5455ZM481.818 82H483.273V80H481.818V82ZM484.215 81.3354C486.986 73.5534 491.991 67.3334 499.268 62.6596L498.187 60.9768C490.555 65.8787 485.257 72.4466 482.331 80.6646L484.215 81.3354ZM499.269 62.6585C506.6 57.9288 515.285 55.5455 525.364 55.5455V53.5455C514.958 53.5455 505.884 56.0106 498.185 60.9779L499.269 62.6585ZM525.364 55.5455C538.161 55.5455 548.467 59.6128 556.376 67.6992L557.806 66.3008C549.473 57.7811 538.627 53.5455 525.364 53.5455V55.5455ZM556.381 67.7045C564.325 75.7076 568.364 87.1197 568.364 102.091H570.364C570.364 86.7591 566.22 74.7772 557.801 66.2955L556.381 67.7045ZM568.364 102.091V196H570.364V102.091H568.364ZM569.364 195H530.727V197H569.364V195ZM531.727 196V109.727H529.727V196H531.727ZM531.727 109.727C531.727 101.8 529.619 95.6742 525.231 91.5445L523.86 93.0009C527.715 96.6289 529.727 102.14 529.727 109.727H531.727ZM525.231 91.5445C520.906 87.4743 515.502 85.4545 509.091 85.4545V87.4545C515.044 87.4545 519.942 89.3135 523.86 93.0009L525.231 91.5445ZM509.091 85.4545C501.829 85.4545 496.049 87.7819 491.885 92.5219L493.388 93.8418C497.103 89.612 502.292 87.4545 509.091 87.4545V85.4545ZM491.89 92.5168C487.752 97.1635 485.727 103.268 485.727 110.727H487.727C487.727 103.641 489.642 98.0486 493.383 93.8468L491.89 92.5168ZM485.727 110.727V196H487.727V110.727H485.727ZM486.727 195H449.182V197H486.727V195ZM450.182 196V108.909H448.182V196H450.182ZM450.182 108.909C450.182 101.859 448.148 96.1343 443.99 91.8491L442.555 93.2418C446.277 97.0778 448.182 102.262 448.182 108.909H450.182ZM443.996 91.8547C439.902 87.5695 434.506 85.4545 427.909 85.4545V87.4545C434.04 87.4545 438.885 89.4002 442.55 93.2362L443.996 91.8547ZM427.909 85.4545C423.428 85.4545 419.362 86.5935 415.739 88.8818L416.807 90.5728C420.093 88.4974 423.785 87.4545 427.909 87.4545V85.4545ZM415.743 88.8793C412.183 91.1043 409.368 94.2453 407.293 98.269L409.071 99.1856C410.996 95.4517 413.575 92.5927 416.803 90.5753L415.743 88.8793ZM407.296 98.2633C405.208 102.25 404.182 106.9 404.182 112.182H406.182C406.182 107.161 407.156 102.841 409.068 99.1913L407.296 98.2633ZM404.182 112.182V196H406.182V112.182H404.182ZM405.182 195H366.455V197H405.182V195Z" fill="#767676"/>
<path d="M334.088 285.34L369.669 1.24412L556.592 218.122L334.088 285.34Z" stroke="#B4B4B4"/>
<mask id="mask0_658_433" style="mask-type:alpha" maskUnits="userSpaceOnUse" x="366" y="54" width="204" height="142">
<path d="M366.455 196V56.3636H403.364V81H405C407.909 72.8182 412.758 66.3636 419.545 61.6364C426.333 56.9091 434.455 54.5455 443.909 54.5455C453.485 54.5455 461.636 56.9394 468.364 61.7273C475.091 66.4545 479.576 72.8788 481.818 81H483.273C486.121 73 491.273 66.6061 498.727 61.8182C506.242 56.9697 515.121 54.5455 525.364 54.5455C538.394 54.5455 548.97 58.697 557.091 67C565.273 75.2424 569.364 86.9394 569.364 102.091V196H530.727V109.727C530.727 101.97 528.667 96.1515 524.545 92.2727C520.424 88.3939 515.273 86.4545 509.091 86.4545C502.061 86.4545 496.576 88.697 492.636 93.1818C488.697 97.6061 486.727 103.455 486.727 110.727V196H449.182V108.909C449.182 102.061 447.212 96.6061 443.273 92.5454C439.394 88.4848 434.273 86.4545 427.909 86.4545C423.606 86.4545 419.727 87.5455 416.273 89.7273C412.879 91.8485 410.182 94.8485 408.182 98.7273C406.182 102.545 405.182 107.03 405.182 112.182V196H366.455Z" fill="#B4B4B4"/>
</mask>
<g mask="url(#mask0_658_433)">
<path d="M366.455 196V56.3636H403.364V81H405C407.909 72.8182 412.758 66.3636 419.545 61.6364C426.333 56.9091 434.455 54.5455 443.909 54.5455C453.485 54.5455 461.636 56.9394 468.364 61.7273C475.091 66.4545 479.576 72.8788 481.818 81H483.273C486.121 73 491.273 66.6061 498.727 61.8182C506.242 56.9697 515.121 54.5455 525.364 54.5455C538.394 54.5455 548.97 58.697 557.091 67C565.273 75.2424 569.364 86.9394 569.364 102.091V196H530.727V109.727C530.727 101.97 528.667 96.1515 524.545 92.2727C520.424 88.3939 515.273 86.4545 509.091 86.4545C502.061 86.4545 496.576 88.697 492.636 93.1818C488.697 97.6061 486.727 103.455 486.727 110.727V196H449.182V108.909C449.182 102.061 447.212 96.6061 443.273 92.5454C439.394 88.4848 434.273 86.4545 427.909 86.4545C423.606 86.4545 419.727 87.5455 416.273 89.7273C412.879 91.8485 410.182 94.8485 408.182 98.7273C406.182 102.545 405.182 107.03 405.182 112.182V196H366.455Z" fill="#E4E4E4"/>
<line x1="379.5" y1="235" x2="379.5" y2="5" stroke="#B4B4B4"/>
<line x1="395.5" y1="235" x2="395.5" y2="5" stroke="#B4B4B4"/>
<line x1="411.5" y1="235" x2="411.5" y2="5" stroke="#B4B4B4"/>
<line x1="427.5" y1="235" x2="427.5" y2="5" stroke="#B4B4B4"/>
<line x1="443.5" y1="235" x2="443.5" y2="5" stroke="#B4B4B4"/>
<line x1="459.5" y1="235" x2="459.5" y2="5" stroke="#B4B4B4"/>
<line x1="474.5" y1="235" x2="474.5" y2="5" stroke="#B4B4B4"/>
<line x1="490.5" y1="235" x2="490.5" y2="5" stroke="#B4B4B4"/>
<line x1="506.5" y1="234" x2="506.5" y2="5" stroke="#B4B4B4"/>
<line x1="522.5" y1="234" x2="522.5" y2="5" stroke="#B4B4B4"/>
<line x1="538.5" y1="234" x2="538.5" y2="5" stroke="#B4B4B4"/>
<line x1="554.5" y1="234" x2="554.5" y2="5" stroke="#B4B4B4"/>
<line x1="355" y1="91.5" x2="584" y2="91.5" stroke="#B4B4B4"/>
<line x1="355" y1="91.5" x2="584" y2="91.5" stroke="#B4B4B4"/>
<line x1="355" y1="75.5" x2="584" y2="75.5" stroke="#B4B4B4"/>
<line x1="355" y1="59.5" x2="584" y2="59.5" stroke="#B4B4B4"/>
<line x1="351" y1="107.5" x2="580" y2="107.5" stroke="#B4B4B4"/>
<line x1="351" y1="122.5" x2="580" y2="122.5" stroke="#B4B4B4"/>
<line x1="351" y1="138.5" x2="580" y2="138.5" stroke="#B4B4B4"/>
<line x1="351" y1="154.5" x2="580" y2="154.5" stroke="#B4B4B4"/>
<line x1="351" y1="170.5" x2="580" y2="170.5" stroke="#B4B4B4"/>
<line x1="351" y1="186.5" x2="580" y2="186.5" stroke="#B4B4B4"/>
<path d="M369.313 0.064966L557.473 218.379L333.497 286.041L369.313 0.064966Z" fill="#1D1D1D"/>
</g>
<path d="M214.636 198.727C227.606 198.727 238.485 195.909 247.273 190.273C256.061 184.576 261.394 176.515 263.273 166.091L250.818 84C243.485 73.8788 235.121 66.4545 225.727 61.7273C216.333 56.9394 205.97 54.5455 194.636 54.5455C185.364 54.5455 177 56.0303 169.545 59C162.091 61.9091 155.879 66.3333 150.909 72.2727C145.939 78.1515 142.515 85.5151 140.636 94.3636C138.758 103.212 138.818 113.576 140.818 125.455L142.455 136.091H257.545L253.727 112.091H175.091C174.182 106.515 174.576 101.576 176.273 97.2727C177.97 92.9697 180.758 89.6061 184.636 87.1818C188.455 84.697 193.152 83.4545 198.727 83.4545C204.667 83.4545 210.121 84.8182 215.091 87.5454C220.061 90.2121 224.212 93.8182 227.545 98.3636C230.818 102.909 232.939 107.909 233.909 113.364L237.636 136.182C238.788 143.091 238.485 149.061 236.727 154.091C234.97 159.121 231.97 163 227.727 165.727C223.424 168.455 218.061 169.818 211.636 169.818C207.333 169.818 203.303 169.212 199.545 168C195.788 166.788 192.424 165 189.455 162.636C186.424 160.212 183.939 157.212 182 153.636L146.636 156C149.97 164.606 154.97 172.121 161.636 178.545C168.303 184.909 176.182 189.879 185.273 193.455C194.303 196.97 204.091 198.727 214.636 198.727ZM306.182 171.909C300.545 171.909 295.364 170.788 290.636 168.545C285.848 166.242 281.909 163.152 278.818 159.273C275.667 155.394 273.667 151 272.818 146.091L270.455 131.273C271.667 132.061 273.424 132.758 275.727 133.364C277.97 133.97 280.424 134.545 283.091 135.091C285.697 135.576 288.333 136.03 291 136.455C293.667 136.818 296.061 137.182 298.182 137.545C302.848 138.212 307.03 139.273 310.727 140.727C314.424 142.182 317.424 144.152 319.727 146.636C322.03 149.061 323.455 152.091 324 155.727C324.848 161 323.606 165.03 320.273 167.818C316.879 170.545 312.182 171.909 306.182 171.909ZM319.545 198.636C329.182 198.636 337.394 197.091 344.182 194C350.97 190.848 355.879 186.182 358.909 180C361.939 173.818 362.697 166.152 361.182 157C359.848 149.242 357.333 142.758 353.636 137.545C349.879 132.273 345.303 128.03 339.909 124.818C334.515 121.606 328.545 119.152 322 117.455C315.394 115.758 308.576 114.606 301.545 114C293.303 113.152 286.667 112.333 281.636 111.545C276.545 110.758 272.727 109.636 270.182 108.182C267.636 106.667 266.091 104.424 265.545 101.455V100.909C264.636 95.2121 265.758 90.7879 268.909 87.6364C272 84.4242 276.818 82.8182 283.364 82.8182C290.273 82.8182 296.091 84.3333 300.818 87.3636C305.485 90.3939 308.848 94.2424 310.909 98.9091L346.182 96C342.97 87.5151 338.182 80.1818 331.818 74C325.455 67.7576 317.727 62.9697 308.636 59.6364C299.485 56.2424 289.182 54.5455 277.727 54.5455C273.364 54.5455 269.152 54.9394 265.091 55.7273C260.97 56.5151 257.182 57.7879 253.727 59.5455C250.212 61.303 247.212 63.697 244.727 66.7273C242.242 69.7576 240.455 73.4848 239.364 77.9091L259.727 173.182H262.273C265.545 178.394 270.182 182.909 276.182 186.727C282.182 190.545 288.939 193.485 296.455 195.545C303.97 197.606 311.667 198.636 319.545 198.636ZM38.6327 248.364V173.636H39.8145C41.6327 177.515 44.2085 181.364 47.5418 185.182C50.8145 188.939 55.0873 192.061 60.36 194.545C65.5721 197.03 71.9358 198.273 79.4509 198.273C90.057 198.273 99.663 195.545 108.269 190.091C116.815 184.576 123.602 176.485 128.633 165.818C133.602 155.091 136.087 141.939 136.087 126.364C136.087 110.364 133.512 97.0606 128.36 86.4545C123.208 75.7879 116.36 67.8182 107.815 62.5455C99.2085 57.2121 89.7842 54.5455 79.5418 54.5455C71.7236 54.5455 65.2085 55.8788 59.9964 58.5455C54.7236 61.1515 50.4812 64.4242 47.2691 68.3636C43.9964 72.2424 41.5115 76.0606 39.8145 79.8182H38.1782V56.3636H-0.00364685V248.364H38.6327ZM67.1782 167.455C60.9358 167.455 55.663 165.758 51.36 162.364C46.9964 158.909 43.663 154.091 41.36 147.909C38.9964 141.727 37.8145 134.485 37.8145 126.182C37.8145 117.879 38.9661 110.667 41.2691 104.545C43.5721 98.4242 46.9055 93.697 51.2691 90.3636C55.6327 87.0303 60.9358 85.3636 67.1782 85.3636C73.5418 85.3636 78.9055 87.0909 83.2691 90.5454C87.6327 94 90.9358 98.7879 93.1782 104.909C95.4206 111.03 96.5418 118.121 96.5418 126.182C96.5418 134.303 95.4206 141.485 93.1782 147.727C90.8752 153.909 87.5721 158.758 83.2691 162.273C78.9055 165.727 73.5418 167.455 67.1782 167.455Z" fill="#1D1D1D"/>
</svg>
