<svg version="1.1" xmlns="http://www.w3.org/2000/svg" viewBox="0 0 225.71428571428623 202.14285714285714" width="677.1428571428587" height="606.4285714285714">
  <!-- svg-source:excalidraw -->
  
  <defs>
    <style>
      @font-face {
        font-family: "Virgil";
        src: url("https://excalidraw.com/Virgil.woff2");
      }
      @font-face {
        font-family: "Cascadia";
        src: url("https://excalidraw.com/Cascadia.woff2");
      }
    </style>
  </defs>
  <g stroke-linecap="round" transform="translate(10 10) rotate(0 102.85714285714312 91.07142857142857)"><path d="M105.62 0.21 C118.27 -1.02, 132.97 2.65, 144.77 7.28 C156.57 11.91, 167.36 19.51, 176.42 27.99 C185.49 36.47, 194.29 47.22, 199.16 58.17 C204.04 69.11, 205.88 82.13, 205.7 93.66 C205.51 105.19, 203.27 116.92, 198.06 127.36 C192.85 137.8, 184.17 148.06, 174.45 156.3 C164.73 164.54, 151.88 172.61, 139.74 176.8 C127.6 180.99, 114.49 181.94, 101.61 181.45 C88.74 180.95, 74.55 178.23, 62.49 173.83 C50.43 169.43, 38.49 163.38, 29.25 155.03 C20.02 146.68, 12.07 134.55, 7.09 123.72 C2.11 112.89, -0.75 101.47, -0.62 90.05 C-0.5 78.64, 2.55 66.06, 7.85 55.23 C13.16 44.39, 21.53 33.34, 31.19 25.03 C40.86 16.71, 51.23 9.37, 65.84 5.32 C80.46 1.26, 108.09 0.76, 118.88 0.72 C129.67 0.68, 131.03 3.67, 130.61 5.07 M65.89 4.73 C76.79 -0.18, 91.83 0.31, 104.95 0.75 C118.08 1.18, 132.77 2.9, 144.64 7.33 C156.5 11.76, 166.87 18.56, 176.14 27.33 C185.4 36.09, 195.5 48.95, 200.22 59.94 C204.95 70.92, 204.97 82.07, 204.48 93.22 C203.98 104.36, 202.61 116.38, 197.25 126.81 C191.89 137.24, 182.01 147.68, 172.31 155.8 C162.61 163.92, 150.86 170.94, 139.06 175.52 C127.26 180.11, 114.53 183.57, 101.52 183.3 C88.5 183.02, 73.3 178.99, 60.97 173.87 C48.64 168.76, 36.41 160.87, 27.53 152.61 C18.65 144.35, 12.11 135.12, 7.7 124.33 C3.29 113.53, 0.8 99.51, 1.07 87.85 C1.34 76.19, 3.91 65.07, 9.32 54.37 C14.72 43.66, 24.1 31.82, 33.5 23.62 C42.9 15.41, 60.25 7.69, 65.72 5.14 C71.19 2.59, 65.74 6.82, 66.34 8.32" stroke="none" stroke-width="0" fill="#383a59"></path><path d="M89.95 1.35 C102.06 -1.33, 117.24 0.4, 129.97 3.58 C142.71 6.77, 155.92 13.38, 166.36 20.46 C176.81 27.53, 186.14 35.93, 192.62 46.03 C199.09 56.13, 203.83 69.4, 205.23 81.06 C206.63 92.71, 204.55 104.82, 201.03 115.96 C197.5 127.09, 192.19 138.9, 184.1 147.88 C176 156.87, 164.09 164.2, 152.44 169.87 C140.79 175.53, 127 180.25, 114.21 181.88 C101.43 183.51, 88.22 182.75, 75.71 179.64 C63.21 176.53, 49.71 170.62, 39.18 163.22 C28.65 155.83, 18.86 145.65, 12.55 135.28 C6.24 124.9, 2.65 112.57, 1.34 100.98 C0.03 89.38, 1.28 76.77, 4.69 65.7 C8.1 54.63, 13.8 43.52, 21.8 34.56 C29.8 25.59, 38.78 17.61, 52.69 11.89 C66.6 6.17, 94.3 1.79, 105.25 0.25 C116.21 -1.3, 118.37 1.2, 118.41 2.6 M58.26 8.29 C68.77 2.44, 83.77 0.35, 97.18 -0.14 C110.58 -0.63, 126.11 1.43, 138.67 5.36 C151.22 9.29, 162.91 15.38, 172.49 23.45 C182.07 31.52, 190.87 43.28, 196.14 53.78 C201.42 64.28, 203.32 75.14, 204.12 86.46 C204.92 97.78, 205.33 110.49, 200.94 121.7 C196.56 132.91, 186.99 145.25, 177.84 153.72 C168.7 162.19, 157.89 168.03, 146.08 172.53 C134.26 177.03, 120.21 179.98, 106.94 180.7 C93.68 181.43, 78.96 180.83, 66.48 176.88 C53.99 172.93, 41.63 164.78, 32.01 156.99 C22.39 149.21, 14.18 140.44, 8.74 130.17 C3.31 119.9, -0.33 107.11, -0.6 95.36 C-0.86 83.61, 2.58 70.63, 7.16 59.67 C11.75 48.71, 17.96 38.17, 26.9 29.62 C35.84 21.06, 55.25 11.77, 60.79 8.33 C66.33 4.88, 59.63 7.67, 60.16 8.97" stroke="#061818" stroke-width="4" fill="none"></path></g><g stroke-opacity="0.3" fill-opacity="0.3" stroke-linecap="round" transform="translate(10.789473684209952 10.451127819548816) rotate(0 100.78947368421086 90.52631578947368)"><path d="M23.97 31.44 C23.97 31.44, 23.97 31.44, 23.97 31.44 M23.97 31.44 C23.97 31.44, 23.97 31.44, 23.97 31.44 M5.24 64.02 C21.34 45.7, 37.69 27.81, 51.12 14.87 M6.79 64.59 C17.35 52.3, 28.92 38.58, 49.88 13.23 M5.26 78.98 C22.9 59.87, 35.27 43.79, 58.96 14.71 M4.37 78.24 C23.45 56.44, 40.95 36.78, 60.77 14.22 M4.41 90.69 C24.32 63.39, 51.56 39.41, 74.31 11.36 M4 91.51 C30.31 61.28, 56.04 31.05, 73.49 10.73 M4.53 98.98 C31.92 69.9, 59.15 38.48, 94.2 1.76 M5.66 101.22 C29.32 73.37, 52.81 46.73, 94.3 0.56 M10.26 110.57 C32.56 80.62, 60.57 51.24, 103.82 3.36 M9.66 109.74 C34.67 81.36, 60.41 50.35, 102.28 2.54 M12.41 119.52 C46.42 76.91, 84.9 34.17, 111.34 2.96 M11.69 118.78 C35.96 92.03, 58.34 64.33, 111.96 2.61 M12.92 133.42 C40.31 100.45, 66.93 66.07, 123.42 4.81 M11.47 130.93 C37.42 101.18, 63.53 69.48, 122.42 3.36 M17.47 136.44 C45.83 103.68, 79.47 68.48, 131.87 3.93 M17.05 137.95 C49.78 99.15, 84.65 60.72, 131.67 4.56 M20.84 142.11 C60.41 98.1, 101.75 47.89, 137.91 8.51 M21.88 142.91 C59.24 100.65, 97.74 57.36, 138.58 8.87 M28.09 151.08 C73.63 97.54, 120.73 41.27, 147.6 13.48 M25.63 151.27 C51.08 121.64, 74.06 93.33, 146.07 12.8 M32.17 155.99 C62.38 119.44, 92.08 86.51, 154.86 16.42 M31.52 157.02 C66.66 117.28, 99.81 78.53, 153.69 15.87 M38.85 163.16 C62.17 130.18, 89.67 100.96, 160.24 20.43 M36.96 161.7 C77.47 115.85, 116.12 69.59, 160.2 20.8 M44.85 163.64 C79.06 129.87, 111.02 90.19, 168.51 22.5 M45.31 164.81 C72.8 132.86, 100.86 98.77, 168.79 23.23 M53.54 168.91 C92.7 123.53, 130.88 80.13, 172.91 27.94 M53.29 168.75 C83.12 132.25, 113.1 99.07, 175 29.38 M61.63 172.71 C98.62 127.61, 135.41 86.46, 177.9 36.12 M59.39 172 C86.82 142.68, 112.25 114.22, 179.2 35.23 M67.46 177.42 C93.69 146.23, 121.63 115.98, 183.45 39.49 M67.82 176.81 C92.83 147.45, 116.68 118.81, 184.56 40.71 M75.91 179.2 C116.49 135.27, 155.44 88.55, 188.61 45.61 M75.09 181.64 C99.3 154.5, 121.69 127.48, 190.27 47.17 M84.47 183.05 C121.68 136.74, 162.05 92.33, 196.31 54.34 M83.79 181.57 C115.2 146.9, 146.73 111.61, 196.07 53.78 M91.69 182.34 C127.56 146.15, 157.07 108.3, 199.68 61.94 M92.73 183.07 C126.14 146.38, 158.32 109.63, 198.25 63 M102.49 185.5 C123.97 160.02, 145.44 136.68, 202.76 73.14 M101.95 184.09 C136.26 143.84, 171.97 101.92, 202 71.98 M112.48 186.51 C147.55 148.85, 180.36 107.51, 205.49 79.34 M112.68 185.81 C145.54 146.68, 181.06 106.73, 204.19 80.01 M127.41 182.98 C147.79 153.97, 173.12 130.06, 207.24 88.74 M126.52 182 C157.83 145.25, 187.9 109.75, 206.48 89.97 M148.16 169.78 C166.56 148.82, 183.83 127.61, 202.43 105.42 M146.11 170.07 C168.88 145.27, 189.82 120.95, 204.68 104.81 M169.61 154.46 C178.97 144.51, 191.79 131.23, 199.18 122.7 M171.66 155.68 C180.73 143.94, 190.25 133.97, 199.06 122.12" stroke="#282a36" stroke-width="1" fill="none"></path><path d="M92.88 0.18 C104.88 -1.92, 120.96 1.66, 133.39 5.3 C145.81 8.95, 157.73 14.71, 167.44 22.07 C177.15 29.43, 185.93 38.93, 191.64 49.45 C197.35 59.97, 201.02 73.64, 201.68 85.2 C202.33 96.75, 199.74 107.9, 195.55 118.8 C191.35 129.7, 184.82 141.92, 176.5 150.61 C168.17 159.29, 157.02 165.85, 145.59 170.92 C134.17 176, 120.77 180.19, 107.96 181.05 C95.14 181.92, 80.9 179.7, 68.72 176.11 C56.53 172.53, 44.48 167.01, 34.84 159.54 C25.21 152.08, 16.55 141.94, 10.9 131.33 C5.26 120.73, 2 107.5, 0.98 95.91 C-0.04 84.33, 0.92 72.61, 4.78 61.83 C8.64 51.06, 15.63 39.99, 24.11 31.27 C32.59 22.55, 42.94 14.67, 55.66 9.54 C68.39 4.41, 91.88 1.64, 100.48 0.48 C109.08 -0.68, 107.21 1.07, 107.27 2.57" stroke="#282a36" stroke-width="2.5" fill="none" stroke-dasharray="1.5 8"></path></g><g stroke-linecap="round" transform="translate(122.85714285714312 22.481203007518843) rotate(0 21.785714285714675 22.85714285714286)"><path d="M16.32 -0.31 C20.36 -1.51, 26.36 1.06, 30.76 3.27 C35.16 5.48, 40.76 8.55, 42.71 12.95 C44.66 17.35, 44.09 24.99, 42.45 29.67 C40.81 34.36, 36.89 38.49, 32.88 41.07 C28.86 43.66, 22.93 45.45, 18.38 45.19 C13.83 44.94, 8.5 43.05, 5.57 39.56 C2.65 36.07, 1.09 29.4, 0.83 24.28 C0.58 19.15, 1.34 12.71, 4.04 8.83 C6.74 4.95, 14.48 2.24, 17.03 1 C19.58 -0.25, 19.24 1.04, 19.34 1.35 M24.5 -0.64 C28.62 0.05, 34.42 4.48, 37.52 8.21 C40.62 11.94, 43.05 16.87, 43.09 21.74 C43.14 26.62, 40.46 33.33, 37.78 37.44 C35.1 41.56, 31.23 45.38, 27.04 46.42 C22.84 47.46, 16.74 46.26, 12.63 43.68 C8.52 41.11, 4.26 35.87, 2.37 30.98 C0.49 26.1, 0.03 19.09, 1.33 14.36 C2.62 9.63, 6.12 5.19, 10.11 2.62 C14.11 0.05, 22.71 -0.84, 25.29 -1.06 C27.87 -1.28, 25.53 0.65, 25.6 1.29" stroke="none" stroke-width="0" fill="#282a36"></path><path d="M20.54 -0.06 C24.81 -0.72, 30.44 1.76, 34.11 4.75 C37.79 7.74, 41.28 13.11, 42.59 17.87 C43.9 22.62, 44.1 28.96, 41.99 33.29 C39.89 37.63, 34.29 41.93, 29.98 43.86 C25.66 45.8, 20.41 46.39, 16.11 44.91 C11.8 43.42, 6.92 39.06, 4.16 34.92 C1.4 30.78, -0.99 24.83, -0.44 20.07 C0.11 15.31, 3.38 9.58, 7.46 6.39 C11.53 3.19, 20.55 1.8, 24 0.89 C27.45 -0.02, 28.12 0.77, 28.14 0.94 M14.56 2.27 C18.33 0.6, 24.78 1, 29.45 2.73 C34.12 4.47, 40.43 8.61, 42.56 12.68 C44.68 16.76, 43.3 22.64, 42.2 27.2 C41.1 31.76, 39.41 37.07, 35.96 40.05 C32.51 43.03, 26.45 45.06, 21.49 45.07 C16.54 45.08, 10.03 43.29, 6.24 40.12 C2.45 36.95, -0.74 31.16, -1.26 26.03 C-1.79 20.89, 0.38 13.62, 3.09 9.3 C5.81 4.97, 13.16 1.56, 15.03 0.06 C16.89 -1.44, 14.05 0, 14.3 0.29" stroke="#061818" stroke-width="2" fill="none"></path></g><g stroke-linecap="round" transform="translate(57.18045112782056 60.60150375939844) rotate(0 12.500000000000455 13.571428571428584)"><path d="M17.92 1.26 C20.26 2.18, 21.96 5.33, 23.05 7.93 C24.13 10.52, 24.98 13.98, 24.42 16.84 C23.87 19.69, 21.72 23.24, 19.7 25.05 C17.69 26.87, 14.8 27.82, 12.34 27.72 C9.87 27.62, 7.02 26.63, 4.91 24.46 C2.8 22.3, 0.3 17.86, -0.33 14.75 C-0.97 11.64, -0.52 8.01, 1.09 5.81 C2.7 3.6, 6.36 2.11, 9.32 1.51 C12.29 0.91, 16.83 1.92, 18.87 2.22 C20.91 2.51, 21.64 3.21, 21.54 3.27 M14.28 0.09 C17.28 0.66, 21.39 3.97, 23.42 6.21 C25.45 8.44, 26.64 10.98, 26.46 13.5 C26.27 16.01, 24.01 18.86, 22.3 21.32 C20.6 23.78, 19.07 27.57, 16.23 28.26 C13.39 28.96, 7.7 26.99, 5.28 25.49 C2.85 24, 2.21 21.84, 1.67 19.28 C1.12 16.71, 1.43 13.21, 2 10.1 C2.57 6.99, 2.76 2.29, 5.07 0.61 C7.38 -1.06, 14.49 0.01, 15.86 0.06 C17.23 0.1, 13.79 0.82, 13.29 0.87" stroke="none" stroke-width="0" fill="#282a36"></path><path d="M7.22 0.83 C9.39 -0.68, 12.17 -1.26, 14.91 -0.26 C17.65 0.74, 22.13 4.35, 23.67 6.83 C25.21 9.32, 24.49 12.07, 24.14 14.65 C23.79 17.24, 23.49 20.41, 21.57 22.33 C19.65 24.25, 15.41 25.85, 12.63 26.17 C9.84 26.48, 6.74 25.62, 4.86 24.21 C2.99 22.81, 1.97 20.54, 1.37 17.76 C0.77 14.97, 0.17 10.43, 1.25 7.49 C2.34 4.54, 6.42 1.12, 7.87 0.07 C9.32 -0.98, 9.72 0.93, 9.97 1.18 M12.76 -0.27 C15.09 -0.4, 18.68 1.75, 20.81 3.87 C22.95 5.99, 25.38 9.66, 25.59 12.46 C25.79 15.26, 23.71 18.14, 22.06 20.66 C20.42 23.18, 18.06 26.58, 15.71 27.59 C13.36 28.61, 10.3 28.09, 7.96 26.76 C5.62 25.43, 2.94 22.45, 1.64 19.62 C0.35 16.79, -0.27 12.72, 0.19 9.78 C0.65 6.83, 2.2 3.51, 4.38 1.97 C6.55 0.43, 11.87 0.65, 13.27 0.52 C14.67 0.38, 12.55 0.82, 12.76 1.16" stroke="#061818" stroke-width="2" fill="none"></path></g><g stroke-linecap="round" transform="translate(109.39849624060207 111.76691729323306) rotate(0 8.571428571428896 8.571428571428584)"><path d="M11.04 1.09 C12.69 1.41, 15.2 2.74, 16.22 4.28 C17.24 5.82, 17.51 8.65, 17.15 10.33 C16.78 12.01, 15.45 13.26, 14.05 14.36 C12.66 15.46, 10.65 16.74, 8.77 16.94 C6.89 17.13, 4.12 16.47, 2.78 15.52 C1.44 14.58, 0.87 13.03, 0.73 11.26 C0.58 9.48, 0.98 6.76, 1.89 4.86 C2.8 2.96, 4.57 0.69, 6.18 -0.14 C7.79 -0.97, 10.7 -0.48, 11.57 -0.15 C12.45 0.18, 11.3 1.58, 11.42 1.86 M7.88 1.04 C9.57 0.72, 12.54 -0.62, 14.08 0.06 C15.63 0.73, 16.55 2.89, 17.16 5.09 C17.77 7.29, 18.75 11.23, 17.76 13.24 C16.77 15.24, 13.19 16.63, 11.2 17.13 C9.21 17.63, 7.43 16.95, 5.83 16.23 C4.23 15.51, 2.36 14.34, 1.6 12.81 C0.83 11.29, 0.89 8.63, 1.25 7.07 C1.6 5.51, 2.72 4.39, 3.73 3.44 C4.74 2.5, 6.62 1.98, 7.33 1.41 C8.04 0.85, 7.84 0.34, 8.01 0.04" stroke="none" stroke-width="0" fill="#282a36"></path><path d="M12.69 0.43 C14.28 1.29, 16.93 4.45, 17.48 6.26 C18.03 8.07, 16.63 9.59, 16 11.29 C15.37 12.99, 14.99 15.39, 13.69 16.46 C12.4 17.54, 10.27 18.25, 8.24 17.75 C6.2 17.25, 2.71 14.95, 1.49 13.46 C0.26 11.96, 0.96 10.43, 0.88 8.79 C0.8 7.14, 0.19 5.14, 1.01 3.57 C1.83 2, 3.76 -0.31, 5.8 -0.61 C7.85 -0.91, 11.57 0.91, 13.28 1.78 C14.98 2.64, 15.92 4.28, 16.03 4.57 M12.56 0.17 C14.42 0.35, 16.43 2.16, 16.97 3.87 C17.5 5.59, 16.28 8.54, 15.76 10.46 C15.24 12.39, 14.85 14.22, 13.85 15.43 C12.86 16.63, 11.34 17.63, 9.77 17.68 C8.2 17.74, 5.98 17.16, 4.45 15.76 C2.91 14.35, 1.01 10.97, 0.56 9.26 C0.11 7.55, 0.77 6.81, 1.74 5.51 C2.72 4.22, 4.8 2.15, 6.4 1.49 C8 0.84, 10.47 1.96, 11.36 1.58 C12.24 1.21, 11.82 -0.81, 11.7 -0.74" stroke="#061818" stroke-width="2" fill="none"></path></g></svg>